<!-- aria-hidden="true" so screen readers don't dwell on it -->
<!-- focusable="false" so old screen readers don't focus on it -->
<!-- Added viewBox and preserveAspectRatio for easy scaling -->
<!-- See: https://css-tricks.com/scale-svg/ -->
<!-- Added overflow="visible" to avoid clipping -->
<svg class="logo" aria-hidden="true" focusable="false" xmlns="http://www.w3.org/2000/svg" width="560" height="640" viewBox="0 0 560 640" fill="none" preserveAspectRatio="xMidYMid meet" overflow="visible"><path fill="#451900" d="M298.24 465.091c-8.179-30.159 6.782-62.847 7.652-64.707-45.678 96.925-201.783 188.17-276.702 73.518-8.35-19.798 8.4-17.61 17.889-11.29 9.485 6.316 28.85 14.608 40.182 17.546 77.943 20.21 115.887-116.072 128.623-170.93 11.035-47.534 21.566-117.476 65.925-146.574 3.873-2.541 8.032-4.652 11.527-7.733 9.054-8.113 13.456-26.551 16.069-37.811 1.551-6.694 2.491-14.112 6.545-19.865 5.295-7.516 15.832-9.076 24.185-6.412 11.485 3.662 15.694 15.452 11.402 26.459-3.733 9.333-8.317 18.372-11.256 28.007-2.996 9.823-3.935 19.287-.31 27.977 10.766 25.793 15.503 54.09 12.189 81.929-5.236 42.725-20.714 86.318-18.151 129.681 3.54 60.085 61.853 97.06 118.484 94.92 16.325-.617 36.138-3.307 59.266-14.715 10.252-5.248 30.264 3.375 17.253 14.826-55.615 48.735-203.85 84.441-230.772-14.826Z"/><path fill="#451900" d="M164.843 408.087c9.205-19.705 16.514-40.769 22.144-59.708-29.488-9.105-41.606-33.388-52.764-62.008-13.715-35.196-25.018-22.623-24.448 12.843.632 39.323 22.34 83.346 55.068 108.873Z"/><rect width="510" height="590" x="25" y="25" stroke="#451900" stroke-linejoin="round" stroke-width="50" rx="81.667"/></svg>